<svg width="151" height="115" viewBox="0 0 151 115" fill="none" xmlns="http://www.w3.org/2000/svg">
<path d="M54.3746 7.9406C54.5477 7.25462 55.5224 7.25462 55.6955 7.9406C57.1052 13.5263 61.4667 17.8877 67.0523 19.2974C67.7383 19.4705 67.7383 20.4452 67.0523 20.6183C61.4667 22.0281 57.1052 26.3895 55.6955 31.9751C55.5224 32.6611 54.5477 32.6611 54.3746 31.9751C52.9648 26.3895 48.6034 22.0281 43.0178 20.6183C42.3318 20.4452 42.3318 19.4705 43.0178 19.2974C48.6034 17.8877 52.9648 13.5263 54.3746 7.9406Z" fill="black"/>
<path d="M74.5326 3.83217C74.7862 2.82736 76.2139 2.82737 76.4675 3.83218L80.6934 20.5761C82.7584 28.7579 89.1469 35.1464 97.3287 37.2114L114.073 41.4373C115.077 41.6909 115.077 43.1186 114.073 43.3722L97.3287 47.5982C89.1469 49.6632 82.7584 56.0517 80.6934 64.2335L76.4675 80.9774C76.2139 81.9822 74.7862 81.9822 74.5326 80.9774L70.3066 64.2335C68.2416 56.0517 61.8531 49.6632 53.6713 47.5982L36.9274 43.3722C35.9226 43.1186 35.9226 41.6909 36.9274 41.4373L53.6714 37.2114C61.8531 35.1464 68.2416 28.7579 70.3066 20.5761L74.5326 3.83217Z" fill="#0099FF"/>
<rect x="63.3438" y="38.3989" width="1.63274" height="7.34731" rx="0.816365" fill="white"/>
<rect x="65.7925" y="37.3115" width="1.63274" height="9.52429" rx="0.816365" fill="white"/>
<rect x="68.2388" y="33.7676" width="1.63274" height="16.5995" rx="0.816365" fill="white"/>
<rect x="70.6914" y="37.855" width="1.63274" height="8.43579" rx="0.816365" fill="white"/>
<rect x="73.1377" y="31.5938" width="1.63274" height="20.9534" rx="0.816365" fill="white"/>
<rect x="75.5884" y="35.9507" width="1.63274" height="12.2455" rx="0.816365" fill="white"/>
<rect x="78.0391" y="37.3115" width="1.63274" height="9.52429" rx="0.816365" fill="white"/>
<rect x="80.4854" y="33.7676" width="1.63274" height="16.5995" rx="0.816365" fill="white"/>
<rect x="82.9341" y="38.1187" width="1.63274" height="7.89155" rx="0.816365" fill="white"/>
<rect x="85.3804" y="39.2168" width="1.63274" height="5.71457" rx="0.816365" fill="white"/>
<rect x="87.9844" y="39.9058" width="1.66297" height="4.32372" rx="0.816365" fill="white"/>
<rect width="1.66297" height="4.32372" rx="0.816365" transform="matrix(-1 0 0 1 62.3755 39.9058)" fill="white"/>
<rect x="90.646" y="41.2383" width="1.66297" height="1.66297" rx="0.816365" fill="white"/>
<rect width="1.66297" height="1.66297" rx="0.816365" transform="matrix(-1 0 0 1 59.7139 41.2383)" fill="white"/>
<path d="M22.7172 110.957L19.4711 114.309L19.1252 113.964C19.2139 113.875 19.2849 113.76 19.3381 113.618C19.3913 113.493 19.3824 113.405 19.3115 113.352L17.7682 111.915C15.9944 113.21 14.0609 113.857 11.9678 113.857C9.92791 113.857 8.092 113.396 6.46007 112.474C4.84589 111.551 3.5776 110.309 2.65521 108.748C1.75055 107.188 1.29822 105.485 1.29822 103.64C1.29822 101.724 1.74168 99.9592 2.6286 98.345C3.53325 96.713 4.80154 95.4181 6.43347 94.4603C8.08313 93.4847 9.97226 92.9969 12.1009 92.9969C14.0875 92.9969 15.8436 93.4847 17.3691 94.4603C18.9124 95.4181 20.1008 96.713 20.9345 98.345C21.786 99.9592 22.2117 101.724 22.2117 103.64C22.2117 104.598 22.0343 105.582 21.6795 106.593C21.3425 107.587 20.8458 108.536 20.1895 109.44L21.7062 110.85C21.7239 110.868 21.7594 110.877 21.8126 110.877C21.9013 110.877 21.9988 110.85 22.1053 110.797C22.2117 110.726 22.2915 110.655 22.3447 110.584L22.7172 110.957ZM12.0476 110.505C13.2538 110.505 14.3625 110.23 15.3736 109.68L12.5798 107.099C12.5621 107.081 12.5266 107.072 12.4734 107.072C12.3847 107.072 12.2871 107.108 12.1807 107.179C12.0742 107.232 11.9944 107.294 11.9412 107.365L11.5687 106.992L14.8414 103.666L15.1873 104.012C15.0986 104.101 15.0277 104.216 14.9745 104.358C14.9212 104.482 14.9301 104.571 15.0011 104.624L17.9279 107.338C18.6374 106.239 18.9922 105.032 18.9922 103.72C18.9922 102.354 18.6906 101.103 18.0875 99.968C17.5022 98.815 16.6773 97.9015 15.613 97.2275C14.5665 96.5534 13.378 96.2164 12.0476 96.2164C10.6818 96.2164 9.44898 96.5357 8.3492 97.1742C7.24943 97.7951 6.38912 98.6643 5.76828 99.7818C5.16518 100.899 4.86363 102.15 4.86363 103.533C4.86363 104.952 5.17405 106.194 5.79489 107.258C6.41573 108.305 7.26717 109.112 8.3492 109.68C9.44898 110.23 10.6818 110.505 12.0476 110.505Z" fill="#0099FF"/>
<path d="M39.84 102.07C40.4253 102.247 41.0107 102.593 41.5961 103.108C42.1992 103.604 42.6958 104.243 43.0861 105.023C43.4941 105.804 43.6981 106.673 43.6981 107.631C43.6981 108.66 43.4497 109.618 42.953 110.505C42.4564 111.391 41.7202 112.11 40.7446 112.66C39.769 113.192 38.6072 113.458 37.259 113.458H28.8245V112.952C28.9486 112.952 29.0728 112.926 29.197 112.873C29.3389 112.819 29.4098 112.748 29.4098 112.66V94.3006C29.4098 94.2119 29.3389 94.141 29.197 94.0878C29.0728 94.0346 28.9486 94.0079 28.8245 94.0079V93.5024H34.9708C36.1593 93.5024 37.2058 93.733 38.1105 94.1942C39.0329 94.6377 39.7424 95.2674 40.2391 96.0833C40.7535 96.8816 41.0107 97.7951 41.0107 98.8239C41.0107 100.154 40.6205 101.236 39.84 102.07ZM32.8688 96.6421V101.352H34.5451C35.6449 101.352 36.3987 101.139 36.8067 100.713C37.2324 100.27 37.4453 99.6576 37.4453 98.8771C37.4453 98.2563 37.1704 97.733 36.6205 97.3073C36.0883 96.8638 35.3965 96.6421 34.5451 96.6421H32.8688ZM36.4874 110.318C37.8355 110.318 38.7934 110.043 39.361 109.493C39.9464 108.944 40.2391 108.287 40.2391 107.525C40.2391 106.726 39.9908 106.026 39.4941 105.423C38.9974 104.802 38.146 104.491 36.9398 104.491H32.8688V110.318H36.4874ZM49.9352 94.3006C49.9352 94.2119 49.8643 94.141 49.7224 94.0878C49.5805 94.0346 49.4386 94.0079 49.2966 94.0079V93.5024H54.1924V94.0079C54.0505 94.0079 53.9086 94.0346 53.7667 94.0878C53.6248 94.141 53.5538 94.2119 53.5538 94.3006V112.66C53.5538 112.748 53.6248 112.819 53.7667 112.873C53.9086 112.926 54.0505 112.952 54.1924 112.952V113.458H49.2966V112.952C49.4386 112.952 49.5805 112.926 49.7224 112.873C49.8643 112.819 49.9352 112.748 49.9352 112.66V94.3006ZM69.9222 113.724C68.0242 113.724 66.277 113.281 64.6805 112.394C63.0841 111.489 61.8247 110.247 60.9023 108.669C59.9799 107.072 59.5187 105.298 59.5187 103.347C59.5187 101.29 59.9799 99.4713 60.9023 97.8926C61.8247 96.3139 63.0664 95.0989 64.6273 94.2474C66.1883 93.3782 67.9 92.9436 69.7626 92.9436C71.5541 92.9436 73.0619 93.2629 74.2858 93.9015C75.5275 94.5224 76.6982 95.4004 77.798 96.5357C77.8335 96.5711 77.8867 96.5889 77.9577 96.5889C78.0641 96.5889 78.2503 96.509 78.5164 96.3494L78.8357 96.7485L75.1639 99.6487L74.8446 99.2496C74.951 99.1787 75.0308 99.09 75.0841 98.9835C75.155 98.8594 75.155 98.7707 75.0841 98.7175C74.3391 97.9902 73.5586 97.4403 72.7426 97.0678C71.9444 96.6776 70.9688 96.4824 69.8158 96.4824C68.6096 96.4824 67.5009 96.784 66.4898 97.3871C65.4788 97.9725 64.6805 98.7884 64.0952 99.835C63.5098 100.882 63.2171 102.052 63.2171 103.347C63.2171 104.589 63.5275 105.724 64.1484 106.753C64.7692 107.764 65.5941 108.562 66.6229 109.148C67.6517 109.733 68.7515 110.026 69.9222 110.026C71.022 110.026 71.9621 109.839 72.7426 109.467C73.5231 109.077 74.2592 108.5 74.951 107.737L75.0042 107.631C75.0042 107.542 74.9599 107.445 74.8712 107.338C74.8002 107.214 74.7204 107.125 74.6317 107.072L74.9776 106.7L78.9421 110.026L78.6229 110.425C78.5164 110.336 78.3834 110.256 78.2237 110.185C78.0641 110.114 77.9577 110.114 77.9045 110.185C76.7869 111.391 75.6162 112.287 74.3923 112.873C73.1683 113.44 71.6783 113.724 69.9222 113.724ZM93.6999 113.884C91.6423 113.884 89.7975 113.414 88.1656 112.474C86.5514 111.516 85.292 110.256 84.3873 108.695C83.5004 107.117 83.057 105.449 83.057 103.693C83.057 101.919 83.4827 100.216 84.3341 98.5844C85.1855 96.9348 86.4184 95.5955 88.0325 94.5667C89.6467 93.5379 91.5359 93.0235 93.6999 93.0235C95.8108 93.0235 97.6645 93.5113 99.2609 94.4869C100.857 95.4625 102.081 96.7663 102.933 98.3982C103.784 100.012 104.21 101.777 104.21 103.693C104.21 105.396 103.784 107.037 102.933 108.615C102.099 110.176 100.884 111.445 99.2875 112.42C97.6911 113.396 95.8285 113.884 93.6999 113.884ZM93.7265 110.372C95.0569 110.372 96.2454 110.097 97.2919 109.547C98.3562 108.979 99.1811 108.19 99.7664 107.179C100.37 106.15 100.671 104.988 100.671 103.693C100.671 102.327 100.387 101.103 99.8197 100.021C99.252 98.9392 98.4361 98.0878 97.3718 97.4669C96.3075 96.8283 95.0481 96.509 93.5935 96.509C92.2631 96.509 91.0747 96.8283 90.0281 97.4669C88.9993 98.0878 88.1922 98.9481 87.6068 100.048C87.0215 101.148 86.7288 102.363 86.7288 103.693C86.7288 105.077 87.0658 106.274 87.7399 107.285C88.4317 108.296 89.3097 109.068 90.374 109.6C91.456 110.114 92.5736 110.372 93.7265 110.372ZM125.083 112.766C125.154 112.89 125.393 112.952 125.801 112.952V113.458H120.4V112.952C120.648 112.952 120.817 112.908 120.905 112.819C120.994 112.731 121.003 112.642 120.932 112.553L116.462 105.023H113.721V112.66C113.721 112.748 113.792 112.819 113.934 112.873C114.076 112.926 114.209 112.952 114.333 112.952V113.458H109.544V112.952C109.668 112.952 109.801 112.926 109.943 112.873C110.085 112.819 110.156 112.748 110.156 112.66V94.3006C110.156 94.2119 110.085 94.141 109.943 94.0878C109.819 94.0346 109.695 94.0079 109.57 94.0079V93.5024H117.686C120.027 93.5024 121.792 94.0346 122.981 95.0989C124.187 96.1454 124.79 97.5024 124.79 99.1698C124.79 100.713 124.364 101.955 123.513 102.895C122.679 103.835 121.597 104.465 120.267 104.784L125.083 112.766ZM113.721 96.5889V101.804H118.085C119.185 101.804 120.009 101.547 120.559 101.032C121.109 100.518 121.384 99.8971 121.384 99.1698C121.384 98.4603 121.074 97.8572 120.453 97.3605C119.832 96.8461 119.069 96.5889 118.165 96.5889H113.721ZM148.834 94.0079C148.71 94.0079 148.577 94.0346 148.435 94.0878C148.293 94.141 148.222 94.2119 148.222 94.3006V112.66C148.222 112.748 148.284 112.819 148.408 112.873C148.55 112.926 148.683 112.952 148.808 112.952V113.458H144.125V112.952C144.55 112.952 144.683 112.837 144.524 112.607L135.078 99.5689V112.66C135.078 112.748 135.149 112.819 135.291 112.873C135.433 112.926 135.575 112.952 135.717 112.952V113.458H130.847V112.952C130.989 112.952 131.131 112.926 131.273 112.873C131.415 112.819 131.486 112.748 131.486 112.66V94.3006C131.486 94.2119 131.415 94.141 131.273 94.0878C131.149 94.0346 131.025 94.0079 130.901 94.0079V93.5024H135.717V94.0079C135.291 94.0079 135.158 94.1232 135.318 94.3538L145.029 107.817L144.683 94.3006C144.683 94.2119 144.604 94.141 144.444 94.0878C144.302 94.0346 144.169 94.0079 144.045 94.0079V93.5024H148.834V94.0079Z" fill="black"/>
</svg>
