<svg width="50" height="50" viewBox="0 0 50 50" fill="none" xmlns="http://www.w3.org/2000/svg">
<g clip-path="url(#clip0_241_18304)">
<path d="M12.5506 4.67997C12.6526 4.27555 13.2273 4.27555 13.3293 4.67997C14.1604 7.97294 16.7317 10.5442 20.0246 11.3753C20.4291 11.4774 20.4291 12.052 20.0246 12.154C16.7317 12.9851 14.1604 15.5564 13.3293 18.8494C13.2273 19.2538 12.6526 19.2538 12.5506 18.8493C11.7195 15.5564 9.14824 12.9851 5.85526 12.154C5.45085 12.052 5.45085 11.4774 5.85526 11.3753C9.14824 10.5442 11.7195 7.97294 12.5506 4.67997Z" fill="black"/>
<path d="M24.4306 2.25982C24.5801 1.66743 25.4218 1.66743 25.5713 2.25981L28.0627 12.1311C29.2801 16.9546 33.0464 20.7209 37.8699 21.9383L47.7412 24.4297C48.3335 24.5792 48.3335 25.4208 47.7412 25.5704L37.8699 28.0617C33.0464 29.2791 29.2801 33.0454 28.0627 37.8689L25.5713 47.7402C25.4218 48.3326 24.5801 48.3326 24.4306 47.7402L21.9392 37.8689C20.7218 33.0454 16.9555 29.2791 12.132 28.0617L2.26079 25.5704C1.66841 25.4208 1.66841 24.5792 2.26079 24.4297L12.132 21.9383C16.9555 20.7209 20.7218 16.9546 21.9392 12.1311L24.4306 2.25982Z" fill="#0099FF"/>
<rect x="17.8281" y="22.6382" width="0.962567" height="4.33155" rx="0.481283" fill="white"/>
<rect x="19.2686" y="21.9961" width="0.962567" height="5.61497" rx="0.481283" fill="white"/>
<rect x="20.7129" y="19.9106" width="0.962567" height="9.7861" rx="0.481283" fill="white"/>
<rect x="22.1592" y="22.3174" width="0.962567" height="4.97326" rx="0.481283" fill="white"/>
<rect x="23.6016" y="18.6274" width="0.962567" height="12.3529" rx="0.481283" fill="white"/>
<rect x="25.042" y="21.1943" width="0.962567" height="7.21925" rx="0.481283" fill="white"/>
<rect x="26.4863" y="21.9966" width="0.962567" height="5.61497" rx="0.481283" fill="white"/>
<rect x="27.9326" y="19.9106" width="0.962567" height="9.7861" rx="0.481283" fill="white"/>
<rect x="29.3779" y="22.4775" width="0.962567" height="4.65241" rx="0.481283" fill="white"/>
<rect x="30.8203" y="23.1191" width="0.962567" height="3.36898" rx="0.481283" fill="white"/>
<rect x="32.3516" y="23.5293" width="0.980392" height="2.54902" rx="0.481283" fill="white"/>
<rect width="0.980392" height="2.54902" rx="0.481283" transform="matrix(-1 0 0 1 17.2539 23.5293)" fill="white"/>
<rect x="33.9209" y="24.3135" width="0.980392" height="0.980392" rx="0.481283" fill="white"/>
<rect width="0.980392" height="0.980392" rx="0.481283" transform="matrix(-1 0 0 1 15.6895 24.3135)" fill="white"/>
</g>
<defs>
<clipPath id="clip0_241_18304">
<rect width="50" height="50" fill="white" transform="translate(0.000976562)"/>
</clipPath>
</defs>
</svg>
