<svg width="25" height="24" viewBox="0 0 25 24" fill="none" xmlns="http://www.w3.org/2000/svg">
<path d="M3.78662 3L8.78662 9M21.7866 3L16.7866 9M16.2866 2L13.7866 8M9.28662 2L11.7866 8" stroke="white" stroke-width="2" stroke-linecap="round" stroke-linejoin="round"/>
<path d="M12.7866 22C14.6431 22 16.4236 21.2625 17.7364 19.9497C19.0491 18.637 19.7866 16.8565 19.7866 15C19.7866 13.1435 19.0491 11.363 17.7364 10.0503C16.4236 8.7375 14.6431 8 12.7866 8C10.9301 8 9.14963 8.7375 7.83687 10.0503C6.52412 11.363 5.78662 13.1435 5.78662 15C5.78662 16.8565 6.52412 18.637 7.83687 19.9497C9.14963 21.2625 10.9301 22 12.7866 22Z" stroke="white" stroke-width="2"/>
<path d="M12.7866 18.5C13.7149 18.5 14.6051 18.1313 15.2615 17.4749C15.9179 16.8185 16.2866 15.9283 16.2866 15C16.2866 14.0717 15.9179 13.1815 15.2615 12.5251C14.6051 11.8687 13.7149 11.5 12.7866 11.5C11.8584 11.5 10.9681 11.8687 10.3117 12.5251C9.65537 13.1815 9.28662 14.0717 9.28662 15C9.28662 15.9283 9.65537 16.8185 10.3117 17.4749C10.9681 18.1313 11.8584 18.5 12.7866 18.5Z" stroke="white" stroke-width="2"/>
</svg>
