<svg width="42" height="42" viewBox="0 0 42 42" fill="none" xmlns="http://www.w3.org/2000/svg">
<path d="M35.5234 17.8798C35.734 16.5848 35.6635 15.2597 35.3167 13.9944C34.8579 12.3163 33.9114 10.726 32.4792 9.41263C31.0661 8.12714 29.3435 7.23058 27.4799 6.8107C26.0903 6.49258 24.6546 6.42851 23.2422 6.6216M29.3926 17.8798C29.5962 16.245 29.1725 14.5194 28.1247 13.2608C27.0759 12.0032 25.6375 11.4958 24.2755 11.7387" stroke="white" stroke-width="2.06667" stroke-linecap="round" stroke-linejoin="round"/>
<path d="M13.7357 8.58008C14.0211 8.58219 14.3004 8.66198 14.5439 8.81091C14.7873 8.95983 14.9855 9.17225 15.1173 9.42535L17.0496 13.0461C17.3028 13.5215 17.3152 14.0939 17.0817 14.5796L15.2196 18.4515C15.2196 18.4515 15.759 21.3376 18.0179 23.6853C20.2757 26.0341 23.0409 26.5859 23.0409 26.5859L26.764 24.6494C26.9926 24.5301 27.2478 24.4706 27.5057 24.4765C27.7635 24.4825 28.0157 24.5537 28.2386 24.6835L31.7302 26.7016C32.2314 26.991 32.5424 27.5417 32.5424 28.138V32.3064C32.5424 34.4299 30.6462 35.9624 28.7129 35.2845C24.7397 33.8895 18.5738 31.2359 14.6657 27.1718C10.7577 23.1067 8.20532 16.6938 6.86509 12.5636C6.71131 12.1093 6.66806 11.625 6.73893 11.1506C6.8098 10.6763 6.99275 10.2257 7.27259 9.83628C7.55244 9.44682 7.92112 9.1297 8.34805 8.91123C8.77498 8.69276 9.24784 8.57924 9.72742 8.58008H13.7357Z" stroke="white" stroke-width="2.06667" stroke-linejoin="round"/>
</svg>
