<svg width="25" height="24" viewBox="0 0 25 24" fill="none" xmlns="http://www.w3.org/2000/svg">
<path d="M5.02754 19.8343L2.64697 8.88001L7.40926 11.2617L12.1704 4.5943L16.9327 11.2617L21.695 8.88001L19.3133 19.8332L5.02754 19.8343Z" stroke="white" stroke-width="1.71429" stroke-linejoin="round"/>
<path d="M12.1771 16.5017C12.4273 16.5017 12.675 16.4524 12.9062 16.3567C13.1373 16.2609 13.3473 16.1206 13.5243 15.9437C13.7012 15.7668 13.8415 15.5568 13.9372 15.3256C14.033 15.0945 14.0823 14.8467 14.0823 14.5966C14.0823 14.3464 14.033 14.0986 13.9372 13.8675C13.8415 13.6363 13.7012 13.4263 13.5243 13.2494C13.3473 13.0725 13.1373 12.9322 12.9062 12.8364C12.675 12.7407 12.4273 12.6914 12.1771 12.6914C11.6718 12.6914 11.1873 12.8921 10.83 13.2494C10.4727 13.6067 10.272 14.0913 10.272 14.5966C10.272 15.1018 10.4727 15.5864 10.83 15.9437C11.1873 16.301 11.6718 16.5017 12.1771 16.5017Z" stroke="white" stroke-width="1.71429" stroke-linejoin="round"/>
</svg>
