<svg xmlns="http://www.w3.org/2000/svg" width="25" height="25" viewBox="0 0 25 25" fill="none">
<path d="M12.1741 22.1398C16.0747 22.1398 19.2794 19.0488 19.2794 15.0812C19.2794 14.1073 19.2288 13.0627 18.6895 11.4395C18.1501 9.81765 18.0415 9.60796 17.4705 8.60501C17.2267 10.6513 15.9219 11.5027 15.5897 11.7579C15.5897 11.4926 14.8002 8.56207 13.604 6.8088C12.4293 5.08712 10.8301 3.95786 9.89285 3.19238C9.89285 4.64628 9.48485 6.8088 8.89874 7.91028C8.31264 9.01175 8.20401 9.05217 7.47137 9.87196C6.73874 10.6918 6.40401 10.9444 5.79137 11.9385C5.18001 12.9339 5.06885 14.2589 5.06885 15.2328C5.06885 19.1991 8.27348 22.1398 12.1741 22.1398Z" stroke="white" stroke-width="1.89474" stroke-linejoin="round"/>
</svg>