<svg width="1920" height="1036" viewBox="0 0 1920 1036" fill="none" xmlns="http://www.w3.org/2000/svg">
<g clip-path="url(#clip0_241_17588)">
<path d="M-479.896 1865.59H2398.77M-479.896 1812.28H2398.77M-479.896 1758.97H2398.77M-479.896 1705.66H2398.77M-479.896 1652.35H2398.77M-479.896 1599.05H2398.77M-479.896 1545.74H2398.77M-479.896 1492.43H2398.77M-479.896 1439.12H2398.77M-479.896 1385.81H2398.77M-479.896 1332.5H2398.77M-479.896 1279.2H2398.77M-479.896 1225.89H2398.77M-479.896 1172.58H2398.77M-479.896 1119.27H2398.77M-479.896 1065.96H2398.77M-479.896 1012.65H2398.77M-479.896 959.345H2398.77M-479.896 906.036H2398.77M-479.896 852.727H2398.77M-479.896 799.419H2398.77M-479.896 746.11H2398.77M-479.896 692.801H2398.77M-479.896 639.493H2398.77M-479.896 586.184H2398.77M-479.896 532.875H2398.77M-479.896 479.564H2398.77M-479.896 426.255H2398.77M-479.896 372.947H2398.77M-479.896 319.638H2398.77M-479.896 266.329H2398.77M-479.896 213.021H2398.77M-479.896 159.712H2398.77M-479.896 106.403H2398.77M-479.896 53.0948H2398.77M-479.896 -0.213867H2398.77M-479.23 0.452491V1866.26M-425.921 0.452491V1866.26M-372.613 0.452491V1866.26M-319.304 0.452491V1866.26M-265.996 0.452491V1866.26M-212.687 0.452491V1866.26M-159.378 0.452491V1866.26M-106.07 0.452491V1866.26M-52.7609 0.452491V1866.26M0.547758 0.452491V1866.26M53.8564 0.452491V1866.26M107.165 0.452491V1866.26M160.474 0.452491V1866.26M213.782 0.452491V1866.26M267.091 0.452491V1866.26M320.4 0.452491V1866.26M373.711 0.452491V1866.26M427.02 0.452491V1866.26M480.328 0.452491V1866.26M533.637 0.452491V1866.26M586.946 0.452491V1866.26M640.254 0.452491V1866.26M693.563 0.452491V1866.26M746.872 0.452491V1866.26M800.18 0.452491V1866.26M853.486 0.452491V1866.26M906.795 0.452491V1866.26M960.104 0.452491V1866.26M1013.41 0.452491V1866.26M1066.72 0.452491V1866.26M1120.03 0.452491V1866.26M1173.34 0.452491V1866.26M1226.65 0.452491V1866.26M1279.96 0.452491V1866.26M1333.26 0.452491V1866.26M1386.57 0.452491V1866.26M1439.88 0.452491V1866.26M1493.19 0.452491V1866.26M1546.5 0.452491V1866.26M1599.81 0.452491V1866.26M1653.12 0.452491V1866.26M1706.42 0.452491V1866.26M1759.73 0.452491V1866.26M1813.04 0.452491V1866.26M1866.35 0.452491V1866.26M1919.66 0.452491V1866.26M1972.97 0.452491V1866.26M2026.28 0.452491V1866.26M2079.59 0.452491V1866.26M2132.89 0.452491V1866.26M2186.2 0.452491V1866.26M2239.51 0.452491V1866.26M2292.82 0.452491V1866.26M2346.13 0.452491V1866.26M2399.44 0.452491V1866.26" stroke="#1C1C1C" stroke-width="1.33272"/>
<path d="M1279.29 693.465H1332.6V746.773H1279.29V693.465ZM852.82 693.465H906.129V746.773H852.82V693.465ZM852.82 1279.86H906.129V1333.17H852.82V1279.86ZM479.659 853.391H532.968V906.699H479.659V853.391ZM-373.279 107.069H-319.971V160.378H-373.279V107.069ZM746.203 107.069H799.511V160.378H746.203V107.069ZM1545.83 320.304H1599.14V373.613H1545.83V320.304ZM852.82 320.304H906.129V373.613H852.82V320.304ZM1012.75 480.23H1066.05V533.539H1012.75V480.23ZM1492.52 533.539H1545.83V586.847H1492.52V533.539ZM586.277 266.995H639.585V320.304H586.277V266.995ZM-160.045 746.773H-106.736V800.082H-160.045V746.773ZM1439.22 906.699H1492.52V960.008H1439.22V906.699ZM1652.45 1279.86H1705.76V1333.17H1652.45V1279.86ZM1812.38 800.082H1865.68V853.391H1812.38V800.082ZM2025.61 1066.63H2078.92V1119.93H2025.61V1066.63ZM1918.99 266.995H1972.3V320.304H1918.99V266.995ZM-373.279 480.23H-319.971V533.539H-373.279V480.23ZM-373.279 1333.17H-319.971V1386.48H-373.279V1333.17ZM159.807 213.687H213.116V266.995H159.807V213.687ZM-53.4273 426.921H-0.118683V480.23H-53.4273V426.921ZM266.425 746.773H319.733V800.082H266.425V746.773ZM266.425 1599.71H319.733V1653.02H266.425V1599.71ZM266.425 1226.55H319.733V1279.86H266.425V1226.55ZM1332.6 213.687H1385.91V266.995H1332.6V213.687Z" fill="#242628"/>
</g>
<defs>
<clipPath id="clip0_241_17588">
<rect width="2880" height="1867.14" fill="white" transform="translate(-479.896 -0.880371)"/>
</clipPath>
</defs>
</svg>
