<svg width="25" height="25" viewBox="0 0 25 25" fill="none" xmlns="http://www.w3.org/2000/svg">
<path d="M12.6951 9.78664C12.1415 9.78664 11.6003 9.95081 11.14 10.2584C10.6797 10.566 10.3209 11.0031 10.1091 11.5146C9.89721 12.0261 9.84178 12.5889 9.94978 13.1319C10.0578 13.6749 10.3244 14.1736 10.7158 14.5651C11.1073 14.9566 11.6061 15.2231 12.1491 15.3312C12.692 15.4392 13.2549 15.3837 13.7663 15.1719C14.2778 14.96 14.715 14.6012 15.0226 14.1409C15.3301 13.6806 15.4943 13.1394 15.4943 12.5858C15.4956 12.2178 15.4241 11.8532 15.2839 11.513C15.1437 11.1728 14.9376 10.8637 14.6774 10.6035C14.4172 10.3434 14.1081 10.1372 13.7679 9.99702C13.4277 9.85682 13.0631 9.78532 12.6951 9.78664Z" fill="#0D0D0D"/>
<path fill-rule="evenodd" clip-rule="evenodd" d="M16.5442 2.73926H8.85657C7.26576 2.73926 5.7401 3.37121 4.61522 4.49608C3.49035 5.62096 2.8584 7.14662 2.8584 8.73743V16.4251C2.8584 18.0159 3.49035 19.5416 4.61522 20.6664C5.7401 21.7913 7.26576 22.4233 8.85657 22.4233H16.5442C18.135 22.4233 19.6607 21.7913 20.7856 20.6664C21.9105 19.5416 22.5424 18.0159 22.5424 16.4251V8.73743C22.5424 7.14662 21.9105 5.62096 20.7856 4.49608C19.6607 3.37121 18.135 2.73926 16.5442 2.73926ZM12.6954 16.875C11.5553 16.8723 10.463 16.4169 9.6587 15.6088C8.85441 14.8008 8.40406 13.7064 8.40671 12.5663C8.40936 11.4262 8.8648 10.3338 9.67284 9.52956C10.4809 8.72527 11.5753 8.27492 12.7154 8.27757C13.2799 8.27888 13.8386 8.39137 14.3597 8.60862C14.8807 8.82586 15.3539 9.1436 15.7521 9.5437C16.1503 9.9438 16.4659 10.4184 16.6807 10.9405C16.8955 11.4625 17.0054 12.0217 17.0041 12.5863C17.0028 13.1508 16.8903 13.7095 16.673 14.2305C16.4558 14.7516 16.1381 15.2247 15.738 15.623C15.3379 16.0212 14.8632 16.3367 14.3412 16.5516C13.8192 16.7664 13.2599 16.8763 12.6954 16.875ZM16.4293 7.64976C16.513 7.84922 16.6542 8.01924 16.8349 8.13817C17.0156 8.25709 17.2276 8.31954 17.444 8.31756C17.5857 8.31756 17.7261 8.28963 17.8571 8.23537C17.9881 8.18112 18.1071 8.10159 18.2074 8.00133C18.3077 7.90107 18.3872 7.78205 18.4414 7.65106C18.4957 7.52007 18.5236 7.37967 18.5236 7.23789C18.5251 7.07614 18.4905 6.91609 18.4224 6.76936C18.3544 6.62263 18.2545 6.4929 18.13 6.38958C18.0055 6.28626 17.8596 6.21195 17.7029 6.17204C17.5461 6.13212 17.3825 6.12761 17.2237 6.15882C17.065 6.19003 16.9152 6.25619 16.7853 6.35249C16.6553 6.44879 16.5484 6.57282 16.4723 6.71557C16.3963 6.85833 16.3529 7.01623 16.3455 7.17781C16.338 7.3394 16.3667 7.50061 16.4293 7.64976Z" fill="#0D0D0D"/>
</svg>
