<svg width="25" height="25" viewBox="0 0 25 25" fill="none" xmlns="http://www.w3.org/2000/svg">
<path fill-rule="evenodd" clip-rule="evenodd" d="M18.8636 17.7106C18.8656 17.9085 18.8016 17.9655 18.6096 17.9605C18.0626 17.9454 17.5151 17.9464 16.9681 17.9635C16.6932 17.9755 16.6112 17.9036 16.6152 17.6186C16.6312 16.388 16.6202 15.1564 16.6232 13.9258C16.6232 13.5889 16.6002 13.254 16.4763 12.9361C16.2663 12.3992 15.9045 12.0363 15.3046 11.9834C14.6648 11.9274 14.201 12.2183 13.8881 12.7571C13.6821 13.11 13.6351 13.5049 13.6361 13.9078C13.6391 15.1514 13.6291 16.395 13.6431 17.6376C13.6471 17.9056 13.5652 17.9725 13.3092 17.9635C12.7622 17.9472 12.2148 17.9465 11.6677 17.9615C11.4578 17.9665 11.3938 17.9036 11.3938 17.6916C11.4008 15.1304 11.3998 12.5692 11.3958 10.008C11.3958 9.82401 11.4328 9.74104 11.6398 9.74603C12.2246 9.75803 12.8094 9.75803 13.3932 9.74603C13.5952 9.74204 13.6481 9.81601 13.6401 10.005C13.6271 10.3109 13.6371 10.6188 13.6371 11.0047C14.5039 9.93498 15.5466 9.58308 16.7852 9.83301C17.9848 10.0749 18.8106 11.1546 18.8446 12.6012C18.8845 14.3026 18.8536 16.0071 18.8636 17.7106ZM8.78362 8.79332C8.61216 8.79415 8.44226 8.76072 8.28389 8.695C8.12552 8.62927 7.98188 8.53258 7.86138 8.4106C7.74089 8.28861 7.64597 8.14379 7.5822 7.98462C7.51842 7.82546 7.48708 7.65516 7.49001 7.48372C7.48974 7.13778 7.62637 6.80577 7.87005 6.56022C8.11373 6.31466 8.44468 6.1755 8.79062 6.17312C9.13655 6.17708 9.46681 6.31796 9.70909 6.56492C9.95136 6.81188 10.0859 7.14478 10.0832 7.49072C10.0855 7.66216 10.0535 7.83232 9.989 7.99119C9.92453 8.15006 9.82894 8.29443 9.70784 8.41581C9.58674 8.53718 9.44259 8.63311 9.28387 8.69794C9.12515 8.76278 8.95506 8.79521 8.78362 8.79332ZM9.58738 17.9635C9.04069 17.9464 8.49362 17.9454 7.94688 17.9605C7.75094 17.9645 7.66296 17.9285 7.66296 17.7006C7.67096 15.1414 7.66996 12.5822 7.66396 10.0229C7.66396 9.81701 7.71295 9.74004 7.93188 9.74603C8.49071 9.76003 9.05054 9.76403 9.60837 9.74404C9.86529 9.73504 9.91228 9.83001 9.91128 10.0629C9.90128 11.3306 9.90628 12.5972 9.90628 13.8648C9.90628 15.1194 9.89928 16.374 9.91228 17.6296C9.91528 17.8846 9.85629 17.9745 9.58738 17.9635ZM21.8067 6.77494C21.7567 6.36706 21.7487 5.94819 21.5247 5.5843C20.796 4.40266 19.7913 3.72987 18.3517 3.73786C14.7078 3.75686 11.0639 3.73786 7.41904 3.75086C6.8722 3.75186 6.30937 3.77085 5.81253 4.06376C4.5989 4.78255 3.88611 5.78724 3.89411 7.25779C3.9111 10.9137 3.89411 14.5696 3.90611 18.2265C3.90811 18.7413 3.9161 19.2811 4.18602 19.745C4.82283 20.8427 5.66257 21.6574 7.04215 21.6524C7.08214 21.6524 7.11213 21.6704 7.14612 21.6884H18.6366C18.6996 21.6314 18.7776 21.6594 18.8496 21.6504C19.2624 21.5984 19.6893 21.5964 20.0562 21.3605C21.0809 20.6967 21.8346 19.863 21.8117 18.5434C21.8117 18.5204 21.8277 18.4994 21.8456 18.4804V6.98987C21.7937 6.92489 21.8157 6.84692 21.8067 6.77494Z" fill="#0D0D0D"/>
</svg>
