<svg width="42" height="42" viewBox="0 0 42 42" fill="none" xmlns="http://www.w3.org/2000/svg">
<path d="M21.1757 36.3232C27.2042 30.1232 33.2316 24.5711 33.2316 17.7232C33.2316 10.8753 27.8345 5.32324 21.1767 5.32324C14.5179 5.32324 9.12085 10.8753 9.12085 17.7232C9.12085 24.5711 15.1472 30.1232 21.1757 36.3232Z" stroke="white" stroke-width="2.06667" stroke-linecap="round" stroke-linejoin="round"/>
<path d="M21.1756 20.8233C22.0891 20.8233 22.9653 20.4604 23.6113 19.8144C24.2573 19.1684 24.6202 18.2923 24.6202 17.3787C24.6202 16.4651 24.2573 15.589 23.6113 14.943C22.9653 14.297 22.0891 13.9341 21.1756 13.9341C20.262 13.9341 19.3859 14.297 18.7399 14.943C18.0939 15.589 17.731 16.4651 17.731 17.3787C17.731 18.2923 18.0939 19.1684 18.7399 19.8144C19.3859 20.4604 20.262 20.8233 21.1756 20.8233Z" stroke="white" stroke-width="2.06667" stroke-linecap="round" stroke-linejoin="round"/>
</svg>
