<svg width="42" height="42" viewBox="0 0 42 42" fill="none" xmlns="http://www.w3.org/2000/svg">
<path d="M28.1274 21.189L37.662 12.8469V29.4381L28.1274 21.19V21.189ZM15.8411 22.6026L19.1891 25.53C19.7352 25.9972 20.4307 26.2531 21.1493 26.2513H21.1958C21.946 26.2513 22.6311 25.9775 23.1622 25.5249L23.1581 25.528L26.5061 22.6005L36.6844 31.4045H5.66791L15.8411 22.6026ZM5.65551 10.8681H36.703L21.7889 23.9139C21.6217 24.0475 21.414 24.1204 21.1999 24.1206H21.1586C20.9436 24.1209 20.735 24.0476 20.5675 23.9129L20.5696 23.9139L5.65551 10.8681ZM4.69348 12.8448L14.226 21.188L4.69348 29.4309V12.8448ZM38.1735 9.03388C37.7786 8.83758 37.3434 8.73603 36.9025 8.73732H5.45608C5.00673 8.73774 4.5637 8.84319 4.16235 9.04525L4.17991 9.03698C3.69761 9.27793 3.29203 9.64857 3.00873 10.1073C2.72544 10.566 2.57564 11.0946 2.57618 11.6338V30.6368C2.57426 31.403 2.8764 32.1388 3.41631 32.6826C3.95622 33.2264 4.6898 33.5338 5.45608 33.5373H36.8963C37.6626 33.5338 38.3961 33.2264 38.9361 32.6826C39.476 32.1388 39.7781 31.403 39.7762 30.6368V11.6338C39.7762 10.4981 39.1262 9.51542 38.1807 9.04215L38.1642 9.03388H38.1735Z" fill="white"/>
</svg>
