<svg width="23" height="23" viewBox="0 0 23 23" fill="none" xmlns="http://www.w3.org/2000/svg">
<path d="M19.2031 10.3763C19.3186 9.60162 19.2802 8.81176 19.0901 8.05193C18.8297 7.01291 18.2913 6.0644 17.5328 5.30812C16.7765 4.54957 15.828 4.01122 14.789 3.75083C14.0288 3.56013 13.2386 3.52129 12.4634 3.63655M15.7421 10.0092C15.8661 9.18251 15.6084 8.30722 14.9713 7.6702C14.6692 7.36735 14.3001 7.13972 13.8938 7.00563C13.4875 6.87155 13.0554 6.83476 12.6324 6.89824" stroke="white" stroke-width="1.82353" stroke-linecap="round" stroke-linejoin="round"/>
<path d="M6.7119 4.99097C6.87461 4.99091 7.03436 5.0344 7.1746 5.11691C7.31483 5.19943 7.43042 5.31796 7.50939 5.46022L8.62417 7.46854C8.6962 7.5982 8.73551 7.74348 8.73869 7.89177C8.74187 8.04006 8.70882 8.18689 8.64241 8.31952L7.56774 10.4676C7.56774 10.4676 7.88017 12.0687 9.18217 13.3731C9.98464 14.1626 10.987 14.7186 12.0816 14.9815L14.2297 13.9068C14.3623 13.8404 14.5092 13.8074 14.6575 13.8105C14.8057 13.8137 14.951 13.853 15.0807 13.925L17.0951 15.0459C17.2372 15.1248 17.3556 15.2402 17.4381 15.3802C17.5206 15.5202 17.5642 15.6797 17.5643 15.8422V18.1556C17.5643 19.3336 16.4702 20.1834 15.3542 19.8078C13.0614 19.0346 9.50433 17.5612 7.24802 15.3061C4.99292 13.051 3.52072 9.49265 2.74755 7.20108C2.37068 6.08508 3.22166 4.99097 4.39966 4.99097H6.7119Z" stroke="white" stroke-width="1.82353" stroke-linejoin="round"/>
</svg>
