<svg width="22" height="23" viewBox="0 0 22 23" fill="none" xmlns="http://www.w3.org/2000/svg">
<path d="M11.0336 19.8198C13.4141 19.8198 15.5693 18.8543 17.1292 17.2945C17.9308 16.495 18.5665 15.545 18.9999 14.4992C19.4333 13.4533 19.6557 12.3321 19.6545 11.2C19.6545 8.81947 18.689 6.66422 17.1292 5.1044C16.3297 4.30247 15.3796 3.66644 14.3335 3.23286C13.2874 2.79927 12.166 2.57668 11.0336 2.57789C8.65303 2.57789 6.49779 3.54343 4.93797 5.10325C4.13625 5.90285 3.50043 6.85298 3.06704 7.89906C2.63366 8.94514 2.41125 10.0666 2.4126 11.1989C2.4126 13.5794 3.37815 15.7346 4.93797 17.2945C5.73747 18.0964 6.68756 18.7324 7.73365 19.166C8.77973 19.5996 9.90119 19.821 11.0336 19.8198Z" stroke="white" stroke-width="1.72419" stroke-linejoin="round"/>
<path d="M11.034 13.1919V11.4677C11.5456 11.4677 12.0456 11.3161 12.4709 11.0319C12.8962 10.7477 13.2277 10.3438 13.4235 9.87119C13.6192 9.39861 13.6704 8.87859 13.5706 8.3769C13.4708 7.87521 13.2245 7.41437 12.8628 7.05267C12.5011 6.69097 12.0403 6.44465 11.5386 6.34486C11.0369 6.24507 10.5169 6.29629 10.0443 6.49204C9.57173 6.68779 9.16781 7.01928 8.88362 7.44459C8.59944 7.8699 8.44775 8.36994 8.44775 8.88146" stroke="white" stroke-width="1.72419" stroke-linecap="round" stroke-linejoin="round"/>
<path fill-rule="evenodd" clip-rule="evenodd" d="M11.0332 17.0736C11.3192 17.0736 11.5934 16.96 11.7956 16.7578C11.9978 16.5556 12.1114 16.2814 12.1114 15.9954C12.1114 15.7095 11.9978 15.4352 11.7956 15.233C11.5934 15.0308 11.3192 14.9172 11.0332 14.9172C10.7535 14.9264 10.4883 15.0439 10.2937 15.245C10.0991 15.4461 9.99023 15.715 9.99023 15.9949C9.99023 16.2747 10.0991 16.5436 10.2937 16.7447C10.4883 16.9458 10.7535 17.0645 11.0332 17.0736Z" fill="white"/>
</svg>
