<svg width="60" height="59" viewBox="0 0 60 59" fill="none" xmlns="http://www.w3.org/2000/svg">
<g clip-path="url(#clip0_471_2207)">
<path d="M17.3972 31.4252C19.0118 28.7354 24.6246 25.408 29.1892 28.6934M48.8412 24.2232C46.0392 22.3076 40.5284 23.0371 38.447 27.0698M22.2767 40.8373C27.4279 53.7619 50.0158 47.5623 48.2699 33.8841C48.2699 33.8841 43.3304 36.3073 36.2814 38.1935C29.2351 40.0785 22.2767 40.8373 22.2767 40.8373ZM57.8874 28.0302C59.3489 44.9759 45.8964 57.0038 30.6864 57.2079C15.4765 57.412 5.11159 48.5112 2.83889 32.8638C0.566199 17.2151 13.4882 3.15932 27.8539 1.89798C42.2208 0.635376 56.4258 11.0857 57.8874 28.0302Z" stroke="white" stroke-width="2.01507"/>
</g>
<defs>
<clipPath id="clip0_471_2207">
<rect width="58.6667" height="58.6667" fill="white" transform="translate(0.68457 0.0742188)"/>
</clipPath>
</defs>
</svg>
