<svg xmlns="http://www.w3.org/2000/svg" width="22" height="23" viewBox="0 0 22 23" fill="none">
<path d="M5.21646 15.6504C5.12688 15.7339 5.05503 15.8346 5.0052 15.9464C4.95537 16.0582 4.92857 16.179 4.92641 16.3014C4.92425 16.4238 4.94677 16.5454 4.99263 16.659C5.03849 16.7725 5.10674 16.8756 5.19332 16.9622C5.2799 17.0488 5.38303 17.117 5.49656 17.1629C5.61009 17.2087 5.7317 17.2313 5.85412 17.2291C5.97654 17.2269 6.09728 17.2001 6.20912 17.1503C6.32096 17.1005 6.42162 17.0286 6.50509 16.939L5.21646 15.6504ZM16.1759 5.97964H17.0876C17.0876 5.73782 16.9916 5.50591 16.8206 5.33492C16.6496 5.16393 16.4177 5.06787 16.1759 5.06787V5.97964ZM8.43925 5.06787C8.19743 5.06787 7.96552 5.16393 7.79453 5.33492C7.62354 5.50591 7.52748 5.73782 7.52748 5.97964C7.52748 6.22145 7.62354 6.45336 7.79453 6.62435C7.96552 6.79534 8.19743 6.8914 8.43925 6.8914V5.06787ZM15.2641 13.7163C15.2641 13.9581 15.3602 14.19 15.5312 14.361C15.7022 14.532 15.9341 14.628 16.1759 14.628C16.4177 14.628 16.6496 14.532 16.8206 14.361C16.9916 14.19 17.0876 13.9581 17.0876 13.7163H15.2641ZM6.50509 16.9403L16.8214 6.62517L15.5328 5.33532L5.21646 15.6504L6.50509 16.939V16.9403ZM16.1759 5.06787H8.43925V6.8914H16.1759V5.06787ZM15.2641 5.97964V13.7163H17.0876V5.97964H15.2641Z" fill="#D9D9D9"/>
</svg>